<?xml version="1.0" encoding="utf-8"?>
<!-- Generator: Adobe Illustrator 24.2.1, SVG Export Plug-In . SVG Version: 6.00 Build 0)  -->
<svg version="1.1" id="Слой_1" xmlns="http://www.w3.org/2000/svg" xmlns:xlink="http://www.w3.org/1999/xlink" x="0px" y="0px"
	 viewBox="0 0 1189.16 1090.06" style="enable-background:new 0 0 1189.16 1090.06;" xml:space="preserve">
<style type="text/css">
	.st0{fill:#FF0000;}
	.st1{opacity:0.57;fill:#FFFFFF;}
	.st2{fill:#EAAB6C;}
	.st3{clip-path:url(#SVGID_2_);}
	.st4{fill:#FBD09F;}
	.st5{clip-path:url(#SVGID_4_);fill:#EAAB6C;}
</style>
<circle class="st0" cx="617.83" cy="545.16" r="404.58"/>
<path class="st1" d="M617.83,880.31c-89.52,0-173.68-34.86-236.98-98.16c-63.3-63.3-98.16-147.46-98.16-236.99
	s34.86-173.68,98.16-236.98c63.3-63.3,147.46-98.16,236.98-98.16s173.68,34.86,236.99,98.16c63.3,63.3,98.16,147.46,98.16,236.98
	s-34.86,173.68-98.16,236.99C791.51,845.44,707.35,880.31,617.83,880.31z M617.83,213.01c-88.72,0-172.13,34.55-234.86,97.28
	s-97.28,146.14-97.28,234.86c0,88.72,34.55,172.13,97.28,234.86s146.14,97.28,234.86,97.28s172.13-34.55,234.86-97.28
	c62.73-62.73,97.28-146.14,97.28-234.86c0-88.72-34.55-172.13-97.28-234.86C789.96,247.56,706.55,213.01,617.83,213.01z"/>
<path class="st1" d="M617.83,816.34c-72.44,0-140.54-28.21-191.75-79.43s-79.43-119.32-79.43-191.76
	c0-72.44,28.21-140.54,79.43-191.75s119.32-79.43,191.75-79.43s140.54,28.21,191.76,79.43c51.22,51.22,79.43,119.32,79.43,191.75
	c0,72.44-28.21,140.54-79.43,191.76C758.36,788.13,690.26,816.34,617.83,816.34z M617.83,285.98c-69.23,0-134.32,26.96-183.27,75.91
	c-48.95,48.95-75.91,114.04-75.91,183.27s26.96,134.32,75.91,183.27c48.95,48.95,114.04,75.91,183.27,75.91
	c69.23,0,134.32-26.96,183.27-75.91s75.91-114.04,75.91-183.27s-26.96-134.32-75.91-183.27S687.06,285.98,617.83,285.98z"/>
<rect x="468.98" y="648.99" class="st2" width="18.81" height="134.9"/>
<g>
	<defs>
		<circle id="SVGID_1_" cx="617.83" cy="545.16" r="404.58"/>
	</defs>
	<clipPath id="SVGID_2_">
		<use xlink:href="#SVGID_1_"  style="overflow:visible;"/>
	</clipPath>
	<g class="st3">
		<path class="st4" d="M486.83,647.67c-0.03-7.88-0.06-15.76-0.08-23.65c0-10.01,0-20.01,0-30.02c0-9.95,0-19.89,0-29.84
			c0-10.01,0-20.01,0-30.02c0-9.95,0-19.89,0-29.84c0-10.01,0-20.01,0-30.02c0-9.95,0-19.89,0-29.84c0.02-10,0.04-20.01,0.05-30.01
			c-1.97-29.13,27.78-35.7,34.53-37.44c9.24-0.95,17.6,1.49,25.59,5.41c2.86,1.4,5.41,3.35,7.52,5.73
			c6.6,7.47,11.55,15.79,12.01,26.4c0.02,9.94,0.04,19.87,0.06,29.81c0,10.02,0,20.04,0,30.06c0,9.93,0,19.87,0,29.8
			c0,10.02,0,20.04,0,30.06c0,9.93,0,19.87,0,29.8c0,9.43,0,18.86,0,29.26c2.48-4.63,2.52-9.15,4.92-12.99
			c9.26-14.84,22.21-22.15,39.77-20.97c5.86,0.12,24.8,7.93,29.73,18.44c2.01,5.28,4.16,10.53,4.88,16.2v28.16
			c1.76-9.55,7.22-16.95,13.01-24.15c3.3-4.69,8.52-7.48,12.51-8.83c9.71-3.36,32.01-2.14,39.8,5.05
			c7.09,8.89,13.68,18.03,15.17,29.77v10.49c2.95-3.14,7.85-11.63,9.03-12.92c6.81-7.46,15.21-11.45,25.37-11.56
			c14.33,0.33,24.47,7.17,30.74,19.9c3.73,7.59,4.07,15.78,3.89,24.03c0,9.96,0,19.91,0,29.87c0,10,0,19.99,0,29.99
			c0,9.96,0,19.91,0,29.87c0,10,0,19.99,0,29.99c0,9.96,0,19.91,0,29.87c0,10,0,19.99,0,29.99c0,9.96,0,19.91,0,29.87
			c-0.5,9.99-0.99,19.99-1.49,29.98c-3.01,20.23-9.86,39.61-13.26,59.76c-1.5,9.96-3.88,19.83-3.28,30.02
			c-0.47,4.67-1.14,9.34-1.36,14.02c-0.22,4.79-3.61,3.89-6.42,3.9c-22.85,0.1-45.7,0.13-68.56,0.18c-10,0-20.01,0-30.01,0
			c-9.95,0-19.9,0-29.85,0c-10,0-20.01,0-30.02,0c-9.95,0-19.9,0-29.85,0c-10,0-20.01,0-30.02,0c-9.95,0-19.9,0-29.85,0
			c-10.57-0.37-10.55-0.37-10.62-10.84c-0.02-2.45-0.21-4.91-0.32-7.36c0.33-9.97,1.1-19.95-1.2-29.81
			c-1.95-10.94-8.53-18.37-17.92-23.68c-3.98-2.09-7.96-4.17-11.95-6.26c-5.57-4.59-48.02-59.83-48.02-59.83
			c-6.92-11.09-15.96-34.73-16.91-37.01c-7.38-17.78-18-34.15-23.18-52.9c-1.07-10.53,3.17-29.56,10.43-35.7
			c7.81-6.93,14.91-14.45,19.59-23.95c7.01-8.91,8.01-19.26,7.13-30.04c-1.31-20.16,10.05-34.43,24.85-39.1
			c4.25-1.34,8.87-0.7,12.6,1.74c1.38,0.91,2.76,1.83,4.06,3.04c-0.14,5.11-0.98,10.26-0.99,15.36c-0.03,29.65,0.13,59.29-0.1,88.94
			c-0.06,7.63,3.1,12.72,9.38,16.42c6.13,3.62,8.67,2.4,8.68-4.52"/>
	</g>
</g>
<path class="st2" d="M535.58,460.4h-16.56c-9.07,0-16.44-7.38-16.44-16.44v-36.32c0-9.07,7.38-16.44,16.44-16.44h16.56
	c9.07,0,16.44,7.38,16.44,16.44v36.32C552.02,453.02,544.65,460.4,535.58,460.4z M519.02,395.2c-6.86,0-12.44,5.58-12.44,12.44
	v36.32c0,6.86,5.58,12.44,12.44,12.44h16.56c6.86,0,12.44-5.58,12.44-12.44v-36.32c0-6.86-5.58-12.44-12.44-12.44H519.02z"/>
<g>
	<defs>
		<path id="SVGID_3_" d="M486.83,647.67c-0.03-7.88-0.06-15.76-0.08-23.65c0-10.01,0-20.01,0-30.02c0-9.95,0-19.89,0-29.84
			c0-10.01,0-20.01,0-30.02c0-9.95,0-19.89,0-29.84c0-10.01,0-20.01,0-30.02c0-9.95,0-19.89,0-29.84c0.02-10,0.04-20.01,0.05-30.01
			c-1.97-29.13,27.78-35.7,34.53-37.44c9.24-0.95,17.6,1.49,25.59,5.41c2.86,1.4,5.41,3.35,7.52,5.73
			c6.6,7.47,11.55,15.79,12.01,26.4c0.02,9.94,0.04,19.87,0.06,29.81c0,10.02,0,20.04,0,30.06c0,9.93,0,19.87,0,29.8
			c0,10.02,0,20.04,0,30.06c0,9.93,0,19.87,0,29.8c0,9.43,0,18.86,0,29.26c2.48-4.63,2.52-9.15,4.92-12.99
			c9.26-14.84,22.21-22.15,39.77-20.97c5.86,0.12,24.8,7.93,29.73,18.44c2.01,5.28,4.16,10.53,4.88,16.2v28.16
			c1.76-9.55,7.22-16.95,13.01-24.15c3.3-4.69,8.52-7.48,12.51-8.83c9.71-3.36,32.01-2.14,39.8,5.05
			c7.09,8.89,13.68,18.03,15.17,29.77v10.49c2.95-3.14,7.85-11.63,9.03-12.92c6.81-7.46,15.21-11.45,25.37-11.56
			c14.33,0.33,24.47,7.17,30.74,19.9c3.73,7.59,4.07,15.78,3.89,24.03c0,9.96,0,19.91,0,29.87c0,10,0,19.99,0,29.99
			c0,9.96,0,19.91,0,29.87c0,10,0,19.99,0,29.99c0,9.96,0,19.91,0,29.87c0,10,0,19.99,0,29.99c0,9.96,0,19.91,0,29.87
			c-0.5,9.99-0.99,19.99-1.49,29.98c-3.01,20.23-9.86,39.61-13.26,59.76c-1.5,9.96-3.88,19.83-3.28,30.02
			c-0.47,4.67-1.14,9.34-1.36,14.02c-0.22,4.79-3.61,3.89-6.42,3.9c-22.85,0.1-45.7,0.13-68.56,0.18c-10,0-20.01,0-30.01,0
			c-9.95,0-19.9,0-29.85,0c-10,0-20.01,0-30.02,0c-9.95,0-19.9,0-29.85,0c-10,0-20.01,0-30.02,0c-9.95,0-19.9,0-29.85,0
			c-10.57-0.37-10.55-0.37-10.62-10.84c-0.02-2.45-0.21-4.91-0.32-7.36c0.33-9.97,1.1-19.95-1.2-29.81
			c-1.95-10.94-8.53-18.37-17.92-23.68c-3.98-2.09-7.96-4.17-11.95-6.26c-5.57-4.59-48.02-59.83-48.02-59.83
			c-6.92-11.09-15.96-34.73-16.91-37.01c-7.38-17.78-18-34.15-23.18-52.9c-1.07-10.53,3.17-29.56,10.43-35.7
			c7.81-6.93,14.91-14.45,19.59-23.95c7.01-8.91,8.01-19.26,7.13-30.04c-1.31-20.16,10.05-34.43,24.85-39.1
			c4.25-1.34,8.87-0.7,12.6,1.74c1.38,0.91,2.76,1.83,4.06,3.04c-0.14,5.11-0.98,10.26-0.99,15.36c-0.03,29.65,0.13,59.29-0.1,88.94
			c-0.06,7.63,3.1,12.72,9.38,16.42c6.13,3.62,8.67,2.4,8.68-4.52"/>
	</defs>
	<clipPath id="SVGID_4_">
		<use xlink:href="#SVGID_3_"  style="overflow:visible;"/>
	</clipPath>
	<rect x="564.51" y="588.5" class="st5" width="4" height="159.98"/>
	<rect x="643.29" y="611.06" class="st5" width="4" height="143.78"/>
	<rect x="725.35" y="621.98" class="st5" width="4" height="134.8"/>
</g>
</svg>
